<svg width="36" height="36" viewBox="0 0 36 36" fill="none" xmlns="http://www.w3.org/2000/svg">
<circle cx="18" cy="18" r="18" fill="#32CEF3"/>
<path d="M11.0768 12.6855C11.0768 12.2193 11.2405 11.8347 11.5679 11.5317C11.8954 11.2287 12.3211 11.0771 12.845 11.0771C13.3595 11.0771 13.7758 11.2263 14.0939 11.5247C14.4214 11.8324 14.5851 12.2333 14.5851 12.7275C14.5851 13.1751 14.426 13.548 14.108 13.8464C13.7805 14.1541 13.3502 14.3079 12.8169 14.3079H12.8029C12.2883 14.3079 11.872 14.1541 11.5539 13.8464C11.2358 13.5387 11.0768 13.1517 11.0768 12.6855ZM11.2592 24.9233V15.5806H14.3746V24.9233H11.2592ZM16.1007 24.9233H19.2161V19.7065C19.2161 19.3802 19.2535 19.1284 19.3283 18.9513C19.4593 18.6343 19.6581 18.3662 19.9247 18.1471C20.1914 17.928 20.5258 17.8184 20.9281 17.8184C21.9759 17.8184 22.4998 18.5224 22.4998 19.9303V24.9233H25.6152V19.5667C25.6152 18.1867 25.2878 17.1401 24.6329 16.4268C23.978 15.7135 23.1126 15.3569 22.0367 15.3569C20.8299 15.3569 19.8897 15.8744 19.2161 16.9093V16.9373H19.202L19.2161 16.9093V15.5806H16.1007C16.1194 15.879 16.1287 16.8067 16.1287 18.3639C16.1287 19.921 16.1194 22.1074 16.1007 24.9233Z" fill="white"/>
</svg>
