<svg width="140" height="140" viewBox="0 0 140 140" fill="none" xmlns="http://www.w3.org/2000/svg">
<path d="M114.26 63.2461C114.26 63.2461 116.108 73.418 116.521 75.5508H108.403C109.205 73.1172 112.292 63.6562 112.292 63.6562C112.243 63.7383 113.094 61.168 113.58 59.582L114.26 63.2461ZM140 21.875V118.125C140 125.371 134.774 131.25 128.333 131.25H11.6667C5.22569 131.25 0 125.371 0 118.125V21.875C0 14.6289 5.22569 8.75 11.6667 8.75H128.333C134.774 8.75 140 14.6289 140 21.875ZM37.066 90.5625L52.4271 48.125H42.0972L32.5451 77.1094L31.5 71.2305L28.0972 51.707C27.5382 49 25.8125 48.2344 23.6736 48.125H7.94792L7.77778 48.9727C11.6181 50.0664 15.0451 51.6523 18.0347 53.6484L26.7361 90.5625H37.066ZM60.0104 90.6172L66.1354 48.125H56.3646L50.2639 90.6172H60.0104ZM94.0139 76.7266C94.0625 71.8867 91.4375 68.1953 85.8229 65.1602C82.3958 63.2188 80.3055 61.9062 80.3055 59.9102C80.3542 58.1055 82.0799 56.2461 85.9201 56.2461C89.1042 56.1641 91.4375 57.0117 93.1875 57.8594L94.0625 58.3242L95.3993 49.1367C93.4792 48.2891 90.4167 47.332 86.6493 47.332C77 47.332 70.2188 53.1289 70.1701 61.3867C70.0972 67.4844 75.0312 70.875 78.7257 72.9258C82.4931 75.0039 83.7812 76.3711 83.7812 78.2031C83.7326 81.0469 80.7188 82.3594 77.9236 82.3594C74.0347 82.3594 71.9444 81.6758 68.7604 80.0898L67.4722 79.4062L66.1111 88.9492C68.3958 90.125 72.625 91.1641 77 91.2188C87.2569 91.2461 93.941 85.5312 94.0139 76.7266ZM128.333 90.6172L120.458 48.125H112.899C110.566 48.125 108.792 48.8906 107.795 51.6523L93.2847 90.6172H103.542C103.542 90.6172 105.219 85.3672 105.583 84.2461H118.125C118.417 85.75 119.292 90.6172 119.292 90.6172H128.333Z" fill="#04D8EB"/>
</svg>
