<svg width="556" height="629" viewBox="0 0 556 629" fill="none" xmlns="http://www.w3.org/2000/svg">
<path fill-rule="evenodd" clip-rule="evenodd" d="M80.408 2.49331L75.9723 4.60784L75.9705 8.56493C75.9687 12.3674 75.864 12.5816 73.3293 14.0143C71.8792 14.834 69.9426 16.6784 69.0285 18.1129C66.2417 22.4855 59.6387 23.1431 58.2081 19.1897C57.4608 17.1274 56.3869 16.9783 51.2483 18.2228C48.2841 18.942 47.2421 18.8824 44.7891 17.8502C42.9839 17.0939 39.8298 16.6225 36.5531 16.6225C30.2661 16.6225 29.9838 17.2187 33.1575 23.7952L35.071 27.7653L33.4238 29.6059C32.3872 30.7647 30.8199 31.5323 29.2011 31.6739C27.0054 31.8658 26.5953 32.1918 26.4072 33.8909C26.2865 35.0013 25.4203 36.4116 24.4547 37.0767C21.2419 39.2863 23.4891 43.4706 28.6135 44.825C34.4533 46.3676 37.5666 48.376 42.0059 53.462C44.4305 56.2379 48.1403 59.9006 50.2472 61.5997C56.7668 66.8535 63.4337 71.7607 66.0323 73.2175C67.399 73.9832 69.955 75.9786 71.7123 77.6497C74.5807 80.3791 75.2836 80.6902 78.5886 80.6995C84.8437 80.7181 94.9772 87.684 92.6804 90.3872C90.3658 93.1128 90.5876 99.4062 93.1525 103.812C97.5386 111.346 99.0384 113.491 100.201 113.889C100.836 114.107 102.546 115.501 104.003 116.986C106.43 119.46 108.148 120.048 111.139 119.428C112.761 119.091 113.474 119.572 113.883 121.276C114.5 123.858 117.257 128.145 118.927 129.118C120.111 129.809 120.306 130.56 120.101 133.652C119.689 139.858 125.615 150.097 131.047 152.564C132.245 153.108 134.002 154.643 134.952 155.977C141.008 164.487 154.653 177.737 156.84 177.232C158.758 176.791 159.042 176.927 159.042 178.29C159.042 184.127 166.203 195.659 169.685 195.432C170.665 195.367 171.787 195.35 172.177 195.395C172.602 195.441 172.887 198.692 172.887 203.484C172.887 212.63 174.21 216.7 177.749 218.465C179.636 219.404 179.741 219.685 179.316 222.657C178.216 230.36 187.909 231.99 190.494 224.536C190.707 223.922 190.905 224.421 190.935 225.647C190.969 226.953 191.718 228.648 192.746 229.745C193.71 230.774 195.501 232.873 196.724 234.41C198.561 236.717 199.409 237.205 201.58 237.205C205.176 237.205 206.634 238.543 207.111 242.285C207.466 245.071 213.494 250.619 216.164 250.619C218.153 250.619 225.39 256.668 225.186 258.162C224.817 260.877 222.383 263.129 219.211 263.692C217.323 264.027 215.525 265.061 213.939 266.725C212.617 268.113 211.226 269.249 210.849 269.249C209.136 269.249 210.212 273.43 212.25 274.693C213.396 275.404 214.548 276.69 214.809 277.551C215.068 278.41 216.219 280.5 217.363 282.191C218.507 283.885 220.232 286.523 221.194 288.051C222.234 289.707 223.734 291.028 224.895 291.315C225.969 291.579 227.646 292.567 228.622 293.506C229.599 294.445 231.487 295.507 232.82 295.862C234.79 296.39 235.426 297.062 236.214 299.451C236.748 301.068 238.049 303.115 239.107 304L241.031 305.61L237.668 307.326C234.703 308.838 234.302 309.325 234.302 311.411C234.302 314.15 233.594 314.891 229.687 316.251C224.268 318.137 223.201 324.05 227.966 325.794C230.296 326.645 230.55 327.772 228.952 330.166C228.352 331.064 227.69 334.075 227.479 336.853C226.977 343.485 225.246 351.919 223.965 353.991C223.402 354.898 222.942 356.156 222.942 356.785C222.942 357.493 222.298 357.929 221.254 357.929C218.734 357.929 217.85 359.61 217.434 365.188C217.124 369.385 216.71 370.646 214.964 372.755C213.295 374.767 212.953 375.738 213.29 377.506C213.522 378.726 213.712 380.883 213.712 382.298C213.712 384.596 214.014 384.999 216.575 386.117L219.438 387.365L219.238 392.932L219.037 398.497L221.87 400.056C224.385 401.442 224.799 402.064 225.55 405.615C226.015 407.814 226.931 411.083 227.584 412.879C229.378 417.811 228.754 425.704 226.153 430.96C217.837 447.77 217.113 452.483 221.82 459.172C222.211 459.727 222.626 462.687 222.742 465.75C222.857 468.813 223.262 471.928 223.642 472.671C224.142 473.653 224.041 474.281 223.271 474.95C222.687 475.46 222.273 476.583 222.351 477.45C222.848 482.968 220.015 488.024 215.397 489.867C213.957 490.443 213.874 490.754 214.509 493.174C214.896 494.642 215.013 496.505 214.768 497.313C214.49 498.236 214.87 499.508 215.793 500.741C217.933 503.596 217.434 517.002 215.241 515.621C214.985 515.459 214.751 517.389 214.717 519.906C214.685 522.423 214.788 523.539 214.948 522.384L215.235 520.283L218.586 523.502C220.431 525.272 224.236 528.899 227.044 531.563C229.852 534.227 232.155 536.839 232.16 537.369C232.199 540.554 226.343 548.882 224.566 548.167C223.839 547.874 223.595 548.003 223.899 548.519C224.163 548.968 223.668 550.596 222.802 552.14C221.934 553.683 221.576 554.719 222.005 554.439C222.49 554.126 222.953 554.866 223.224 556.386C223.583 558.385 224.158 559.024 226.32 559.822C232.536 562.113 234.121 566.625 232.257 576.719C230.719 585.053 233.422 597.768 236.131 594.925C236.974 594.04 242.299 593.841 245.588 594.571C248.351 595.186 250.588 593.038 250.616 589.742C250.678 582.554 258 576.235 262.305 579.654C264.552 581.437 266.465 580.956 268.285 578.152C269.517 576.252 270.647 575.449 272.545 575.123C276.379 574.463 278.166 573.325 279.726 570.549C281.505 567.386 284.091 566.337 288.743 566.894C293.041 567.408 294.232 566.571 294.954 562.531C295.598 558.918 301.028 555.982 303.217 558.061C304.47 559.25 304.733 559.231 307.793 557.72C311.46 555.911 311.312 556.194 312.422 548.884L313.242 543.476L316.119 543.667C318.748 543.842 319.055 543.667 319.71 541.624C320.104 540.394 320.649 539.22 320.922 539.015C321.196 538.81 321.838 537.804 322.349 536.78C322.859 535.755 323.865 534.479 324.584 533.942C326.276 532.683 326.235 531.478 324.423 529.058C322.775 526.861 322.82 523.565 324.488 524.031C329.212 525.352 330.433 519.856 326.556 514.735C324.678 512.255 324.501 511.579 324.897 508.441C325.182 506.187 325.058 504.743 324.552 504.415C324.117 504.132 323.762 503.344 323.762 502.662C323.762 501.684 323.993 501.77 324.865 503.074C327.481 506.996 332.595 506.724 332.153 502.686C331.95 500.844 331.615 500.613 328.835 500.404C326.143 500.201 325.901 500.048 326.971 499.227C328.031 498.414 328.076 498.033 327.286 496.479C326.446 494.824 326.469 494.761 327.564 495.709C328.592 496.6 328.94 496.574 330.044 495.523C330.75 494.852 331.863 494.303 332.515 494.303C334.292 494.303 333.956 491.821 331.927 489.971C330.951 489.081 330.152 487.898 330.152 487.344C330.152 486.789 329.538 485.753 328.787 485.04C327.772 484.075 327.518 483.113 327.8 481.293C328.019 479.877 327.847 478.627 327.39 478.331C326.16 477.534 326.419 476.788 329.087 473.437C330.454 471.719 331.572 470.782 331.572 471.354C331.572 471.926 331.278 472.712 330.917 473.102C327.2 477.12 331.631 483.749 337.353 482.733C340.06 482.255 340.215 482.092 339.842 480.131C339.583 478.776 339.808 477.72 340.477 477.137C341.812 475.974 341.819 473.437 340.488 473.437C339.924 473.437 339.045 472.82 338.536 472.064C338.024 471.309 336.888 470.292 336.01 469.802C335.049 469.267 334.412 468.217 334.412 467.168C334.412 464.969 335.971 463.447 337.055 464.586C338.103 465.685 340.779 464.679 340.904 463.14C341.164 459.876 340.726 458.058 339.404 456.923C338.61 456.243 337.953 455.237 337.943 454.687C337.932 454.138 336.988 452.39 335.843 450.805C333.5 447.554 332.442 442.375 333.64 440.023C334.221 438.887 334.201 437.603 333.567 435.116C332.831 432.225 332.882 431.37 333.931 429.06C334.986 426.738 335.044 425.736 334.354 421.771C333.914 419.241 333.431 416.46 333.282 415.586C333.131 414.712 332.366 413.822 331.579 413.606C329.567 413.054 329.494 407.467 331.492 406.919C333.397 406.396 334.379 397.954 332.754 396.071C332.151 395.37 331.688 393.697 331.723 392.35C331.762 390.925 331.155 389.001 330.268 387.743C329.37 386.467 329.034 385.394 329.449 385.126C329.836 384.874 330.152 385.202 330.152 385.854C330.152 387.464 331.853 388.032 333.647 387.024C335.405 386.037 335.598 383.119 333.997 381.724C333.179 381.01 332.552 380.958 331.689 381.534C329.76 382.819 327.495 379.708 327.877 376.291C328.056 374.667 327.763 372.893 327.147 371.896C326.581 370.978 325.569 368.213 324.902 365.754C324.233 363.295 323.111 360.064 322.408 358.574C321.556 356.767 321.341 355.466 321.765 354.671C322.156 353.94 322.115 352.914 321.661 352.023C321.167 351.056 321.157 350.412 321.631 350.106C322.704 349.408 322.484 346.552 321.208 344.638C319.087 341.46 316.68 333.855 316 328.186C315.626 325.077 315.113 321.173 314.859 319.515C314.509 317.228 314.671 316.259 315.53 315.512C317.214 314.044 316.913 312.341 314.547 309.999C313.384 308.846 312.097 306.597 311.689 305.002C311.279 303.408 310.633 301.9 310.253 301.653C309.873 301.407 309.562 300.581 309.562 299.821C309.562 297.966 308.071 297.502 306.559 298.884C305.068 300.248 303.172 299.015 303.172 296.682C303.172 294.264 301.795 292.351 300.055 292.351C298.398 292.351 294.652 289.316 294.652 287.973C294.652 287.574 293.907 286.301 292.994 285.143C291.001 282.609 288.342 277.191 286.109 271.112C285.204 268.653 283.456 265.299 282.222 263.66C280.988 262.02 279.279 259.45 278.422 257.948L276.861 255.219L278.835 254.744C281.35 254.14 283.535 251.105 282.92 249.069C282.549 247.845 282.068 247.638 280.451 248.011C279.299 248.277 277.832 248.076 277.014 247.539C275.101 246.285 271.932 247.731 271.932 249.857C271.932 250.686 271.464 251.364 270.89 251.364C269.472 251.364 270.276 249.238 272.545 246.986C274.659 244.888 273.361 243.167 269.667 243.167C268.411 243.167 267.672 242.772 267.672 242.103C267.672 241.516 267.252 240.594 266.737 240.054C266.224 239.511 265.228 238.146 264.525 237.019C263.737 235.754 262.617 234.969 261.596 234.969C260.686 234.969 259.525 234.345 259.016 233.583C258.504 232.821 255.372 230.261 252.052 227.895C248.733 225.529 245.114 222.798 244.01 221.829C242.906 220.859 241.658 220.065 241.237 220.065C240.817 220.065 239.398 219.206 238.085 218.156C236.773 217.105 234.187 215.56 232.337 214.724C230.49 213.889 227.495 211.646 225.685 209.742C223.874 207.838 220.605 204.602 218.421 202.553C214.536 198.907 212.702 195.879 210.744 189.884C209.91 187.328 209.046 186.478 204.686 183.922C201.891 182.283 199.212 180.193 198.735 179.278C198.256 178.361 197.329 177.435 196.676 177.217C196.021 176.999 194.235 175.632 192.707 174.179C191.179 172.726 189.129 171.088 188.152 170.538C185.781 169.204 177.502 160.098 177.502 158.822C177.502 158.268 176.704 156.579 175.727 155.072C174.627 153.372 173.952 151.286 173.952 149.583C173.952 148.074 173.306 145.741 172.518 144.402L171.084 141.967L172.873 139.735C175.154 136.892 175.158 133.85 172.887 130.338C171.911 128.829 171.112 126.811 171.112 125.854C171.112 123.672 169.467 122.18 167.708 122.767C166.712 123.098 164.866 121.766 160.569 117.612C157.381 114.53 154.326 112.01 153.783 112.01C151.646 112.01 144.287 104.543 143.815 101.893C143.389 99.5123 142.835 99.0186 140.863 99.2608C139.528 99.4248 134.65 87.3878 134.746 84.1703C134.812 81.9775 134.53 81.2137 133.548 80.9454C132.684 80.7069 131.879 79.142 131.088 76.1518C130.442 73.7113 129.437 71.5222 128.857 71.2875C128.276 71.0546 127.802 70.0802 127.802 69.1245C127.802 68.1669 127.493 67.1851 127.115 66.9391C125.067 65.6108 127.705 60.6216 130.465 60.6011C131.904 60.5918 132.062 60.2248 132.062 56.9217C132.062 53.3912 132.181 53.1751 135.231 51.1463C136.974 49.9875 138.411 48.62 138.426 48.1077C138.44 47.5953 138.795 47.1762 139.214 47.1762C139.631 47.1762 139.469 46.6471 138.853 46.0006C138.096 45.2051 137.084 44.9741 135.728 45.2871C133.065 45.9 126.386 42.4981 115.732 35.1056C111.242 31.9888 106.449 29.1979 105.082 28.9036C100.375 27.892 100.112 27.5156 100.112 21.7887C100.112 17.4963 99.8922 16.494 98.8698 16.1158C95.9765 15.0427 94.4323 12.7083 94.4323 9.40141C94.4323 2.01637 88.0281 -1.13773 80.408 2.49331ZM388.685 200.973C388.44 201.999 388.461 203.22 388.734 203.684C389.036 204.194 388.642 204.14 387.733 203.544C384.116 201.172 382.35 205.852 385.014 210.75C387.045 214.482 388.868 214.826 391.473 211.972C393.694 209.537 393.733 207.186 391.558 206.774C389.217 206.331 388.873 205.386 391.182 205.742C393.697 206.13 394.311 205.075 393.47 201.807C392.68 198.747 389.356 198.167 388.685 200.973ZM381.982 222.673C381.982 225.46 382.208 226.027 383.319 226.027C384.059 226.027 384.822 226.692 385.028 227.517C385.891 230.979 394.052 228.594 394.052 224.881C394.052 222.766 391.802 221.883 388.042 222.524C385.962 222.878 385.603 222.701 385.227 221.125C384.395 217.647 381.982 218.798 381.982 222.673ZM369.921 224.52C369.321 225.693 369.47 226.308 370.649 227.545C373.462 230.498 376.439 227.577 373.769 224.48C372.186 222.645 370.871 222.658 369.921 224.52ZM378.383 227.953C376.97 229.738 378.452 231.573 381.528 231.847C384.645 232.126 385.658 230.466 383.734 228.234C382.211 226.47 379.661 226.336 378.383 227.953ZM379.494 237.212C378.713 238.539 379.897 240.918 381.854 241.956C384.286 243.241 385.532 242.762 385.532 240.538C385.532 237.727 380.743 235.089 379.494 237.212ZM286.842 262.531C286.842 265.055 290.774 269.035 292.304 268.057C294.272 266.797 294.326 263.654 292.405 262.242C290.032 260.497 286.842 260.662 286.842 262.531ZM322.816 301.045C321.252 302.685 322.406 305.019 324.779 305.019C327.234 305.019 328.729 303.097 327.671 301.301C327.177 300.46 323.553 300.27 322.816 301.045ZM334.217 413.777C333.557 416.426 336.269 418.163 338.087 416.257C340.037 414.209 339.349 412.33 336.647 412.33C335.195 412.33 334.471 412.762 334.217 413.777ZM551.814 538.419C551.346 538.911 550.962 540.899 550.962 542.838C550.962 545.927 550.763 546.393 549.365 546.602C545.517 547.175 547.265 553.92 551.262 553.92C554.906 553.92 556.516 550.913 554.182 548.463C553.27 547.505 553.314 547.326 554.537 546.989C556.236 546.523 556.38 543.816 554.903 540.109C553.804 537.346 553.167 537 551.814 538.419ZM539.07 543.235C538.582 543.442 538.182 544.422 538.182 545.411C538.182 546.402 538.582 547.218 539.07 547.224C539.558 547.229 539.159 547.658 538.182 548.178C534.964 549.886 535.605 554.969 539.077 555.268C542.661 555.58 544.32 551.351 541.429 549.273C541.01 548.971 541.672 548.72 542.898 548.714C546.019 548.699 546.66 546.62 544.223 544.42C542.424 542.797 540.921 542.451 539.07 543.235ZM517.415 568.138C515.618 569.237 515.888 571.6 518.05 573.703C520.271 575.862 521.701 576.013 522.994 574.227C525.896 570.216 521.63 565.562 517.415 568.138ZM536.216 569.696C534.325 571.68 536.1 576.037 538.417 575.104C539.366 574.722 539.624 573.93 539.462 571.902C539.235 569.047 537.778 568.056 536.216 569.696ZM525.225 573.86C524.336 574.068 523.982 574.879 523.982 576.721C523.982 580.084 525.122 580.511 535.005 580.852L542.797 581.12L543.023 579.071C543.209 577.362 542.973 577.017 541.603 576.995C535.438 576.895 531.673 576.369 530.248 575.41C528.031 573.921 526.71 573.513 525.225 573.86ZM508.075 580.669C505.082 584.14 508.446 591.475 512.37 590.034C514.403 589.289 515.904 584.473 514.106 584.473C513.7 584.473 512.894 583.508 512.312 582.327C510.959 579.581 509.504 579.013 508.075 580.669ZM504.28 589.712C501.862 590.733 502.043 594.688 504.553 595.691C508.128 597.116 511.531 592.568 508.93 589.839C507.942 588.801 506.53 588.764 504.28 589.712ZM484.201 595.307C483.53 596.154 483.457 597.051 483.94 598.491C484.833 601.155 490.115 601.537 490.467 598.964C490.863 596.059 485.896 593.162 484.201 595.307ZM498.177 602.975C496.823 604.547 496.628 607.243 497.813 608.013C498.332 608.35 497.948 608.913 496.748 609.572C494.358 610.887 494.153 614.414 496.374 616.046C499.679 618.475 503.637 613.721 500.927 610.578C499.654 609.102 499.659 609.065 501.152 609.065C502.45 609.065 502.682 608.637 502.682 606.233C502.682 601.891 500.485 600.3 498.177 602.975ZM485.761 606.528C482.609 608.845 485.939 616.21 489.492 614.779C491.253 614.071 491.051 607.128 489.238 606.11C487.51 605.14 487.676 605.119 485.761 606.528ZM505.861 606.112C505.574 606.599 506.239 607.886 507.391 609.076C508.511 610.233 510.171 612.214 511.078 613.475C512.965 616.098 515.354 616.467 517.127 614.41C519.378 611.798 518.348 609.633 514.394 608.663C513.224 608.376 511.942 607.722 511.547 607.211C510.491 605.846 506.475 605.069 505.861 606.112ZM498.621 620.307C495.923 621.363 495.552 626.412 498.096 627.438C499.723 628.092 502.682 626.464 502.677 624.918C502.668 622.274 500.343 619.632 498.621 620.307ZM1.95479 624.819C3.22924 626.168 3.08193 627.951 1.74003 627.411C1.10813 627.157 0.82413 627.282 1.07263 627.705C1.31048 628.109 1.96723 628.441 2.5299 628.441C4.00848 628.441 3.8221 624.983 2.3098 624.378C1.31403 623.979 1.24302 624.066 1.95479 624.819Z" fill="#04D8EB"/>
</svg>
