<svg width="180" height="140" viewBox="0 0 180 140" fill="none" xmlns="http://www.w3.org/2000/svg">
<path d="M0 91.875C0 113.613 18.1406 131.25 40.5 131.25H144C163.884 131.25 180 115.582 180 96.25C180 79.3242 167.625 65.1875 151.2 61.9609C152.353 59.0352 153 55.8359 153 52.5C153 38.0078 140.906 26.25 126 26.25C120.459 26.25 115.284 27.8906 111.009 30.6797C103.219 17.5547 88.6781 8.75 72 8.75C47.1375 8.75 27 28.3281 27 52.5C27 53.2383 27.0281 53.9766 27.0562 54.7148C11.3062 60.1016 0 74.7031 0 91.875Z" fill="#04D8EB"/>
</svg>
