<svg width="623" height="938" viewBox="0 0 623 938" fill="none" xmlns="http://www.w3.org/2000/svg">
<path fill-rule="evenodd" clip-rule="evenodd" d="M272.902 703.879C271.926 704.216 269.849 704.877 268.287 705.349C265.067 706.321 262.907 708.104 259.613 712.505C256.721 716.367 251.306 718.446 247.243 717.254C243.709 716.216 241.282 717.321 239.728 720.676L238.467 723.392L231.974 723.737C227.769 723.96 225.315 723.8 225.009 723.282C223.012 719.89 219.322 723.554 219.926 728.333C220.247 730.865 220.046 732.782 219.253 734.775C218.632 736.335 218.268 738.192 218.445 738.904C219.019 741.206 213.598 741.404 210.499 739.194C208.798 737.982 206.97 737.385 204.948 737.385C202.545 737.385 201.707 737.02 200.811 735.586C198.338 731.623 194.998 732.348 192.369 737.417L190.482 741.057L187.997 739.813L185.512 738.568L182.766 741.818C179.795 745.333 179.764 746.253 182.514 749.385C184.071 751.157 184.216 751.954 184.216 758.656C184.216 767.144 186.197 772.01 190.01 772.891C191.185 773.163 191.962 773.836 191.962 774.581C191.962 776.544 197.877 781.344 199.684 780.848C201.153 780.444 203.322 781.658 203.322 782.884C203.322 783.218 202.444 783.596 201.37 783.724C198.697 784.049 198.152 789.381 200.457 792.654L201.945 794.767H199.604C197.014 794.767 192.447 791.892 191.222 789.491C190.068 787.229 187.409 787.872 187.122 790.482C186.747 793.902 184.152 791.922 184.152 788.216C184.152 786.232 179.385 779.861 177.908 779.87C177.242 779.874 174.94 780.76 172.792 781.841C169.491 783.503 167.854 783.821 162.197 783.898C157.597 783.961 155.415 784.276 155.214 784.908C155.055 785.411 154.572 785.824 154.141 785.824C153.711 785.824 152.614 786.558 151.704 787.456L150.047 789.09L146.845 787.456C141.284 784.621 131.612 785.569 131.612 788.95C131.612 789.718 132.4 791.978 133.364 793.975C135.418 798.226 135.462 798.155 128.605 801.384C124.686 803.23 123.627 804.128 122.405 806.642L120.934 809.671H115.71C111.933 809.671 110.241 809.362 109.602 808.553C108.019 806.552 104.212 807.152 102.502 809.671C101.668 810.9 100.569 811.907 100.06 811.907C98.986 811.907 94.6923 816.952 94.6923 818.211C94.6923 819.47 96.2259 820.849 97.6264 820.849C98.3026 820.849 99.0783 821.604 99.3481 822.526C99.6179 823.448 100.438 824.802 101.171 825.536C103.047 827.414 102.905 830.304 100.905 830.96C98.1873 831.85 97.069 837.467 99.1298 839.88C99.6179 840.45 100.433 841.436 100.939 842.069C101.652 842.959 102.185 843.038 103.287 842.419C105.484 841.184 105.782 839.42 104.041 837.94C101.638 835.899 102.027 834.278 104.81 834.734C106.553 835.021 107.715 834.645 109.563 833.197C112.998 830.507 113.939 830.742 118.323 835.381C121.947 839.215 122.421 839.481 125.662 839.511C128.966 839.541 129.255 839.716 131.841 843.237C134.507 846.866 134.525 846.931 132.83 846.931C131.879 846.931 129.699 848.101 127.984 849.532C126.27 850.963 124.148 852.137 123.27 852.14C122.391 852.144 121.672 852.435 121.672 852.785C121.672 853.133 120.898 854.298 119.951 855.371C118.712 856.774 118.108 858.527 117.797 861.627C117.247 867.099 116.23 873.545 114.945 879.721C113.486 886.726 112.985 920.426 114.32 921.825C115.575 923.144 115.536 924.031 114.168 925.221C113.555 925.756 113.2 926.781 113.379 927.5C113.793 929.162 112.49 929.685 109.301 929.141C107.353 928.81 106.684 928.996 106.329 929.965C104.852 934.007 115.034 937.553 121.575 935.272C124.287 934.328 125.419 934.235 126.412 934.877C128.724 936.373 135.226 932.161 138.366 927.131C139.17 925.845 140.225 925.177 141.456 925.175C143.397 925.171 148.652 920.787 148.652 919.172C148.652 918.695 149.93 916.704 151.492 914.746C153.054 912.788 154.332 910.623 154.332 909.935C154.332 906.161 159.618 901.132 165.33 899.476C174.205 896.901 183.442 893.604 183.442 893.008C183.442 892.667 184.321 892.384 185.395 892.378C190.658 892.348 200.482 888.045 200.482 885.77C200.482 885.099 201.121 884.132 201.902 883.62C202.683 883.108 203.322 881.982 203.322 881.118C203.322 879.866 203.64 879.633 204.883 879.976C206.979 880.55 208.292 879.259 208.292 876.622C208.292 873.854 210.841 874.894 211.576 877.96C211.991 879.7 212.279 879.84 214.601 879.438C216.012 879.192 217.996 878.989 219.012 878.983C220.813 878.975 222.663 877.729 225.847 874.376C227.244 872.906 227.411 872.021 227.297 866.715L227.168 860.718L230.687 859.935C234.898 859 235.897 856.584 233.03 854.27C232.116 853.53 231.747 852.919 232.21 852.91C232.674 852.901 233.153 851.826 233.275 850.52C233.446 848.692 233.918 848.031 235.334 847.636C239.687 846.425 242.315 840.208 239 838.967C236.22 837.927 235.975 837.186 237.747 835.181C238.684 834.121 239.822 831.636 240.272 829.661C240.723 827.684 241.352 826.237 241.669 826.442C242.603 827.047 244.502 825.993 244.502 824.868C244.502 824.199 245.322 823.821 246.81 823.806C248.079 823.793 249.739 823.29 250.496 822.688C251.748 821.695 252.055 821.771 253.766 823.493C254.806 824.538 255.942 825.322 256.292 825.236C256.642 825.151 257.827 825.469 258.926 825.944C260.025 826.421 261.663 826.811 262.566 826.811C263.47 826.811 264.606 827.314 265.092 827.929C266.319 829.479 270.492 829.341 272.057 827.698C274.677 824.948 276.841 823.83 279.544 823.83C282.273 823.83 286.554 821.687 287.631 819.783C288.311 818.578 297.163 814.146 298.918 814.131C300.647 814.116 302.935 812.68 301.258 812.663C299.873 812.648 298.377 798.485 299.257 793.72C301.121 783.626 299.536 779.114 293.32 776.822C291.158 776.025 290.583 775.386 290.225 773.387C289.953 771.866 289.49 771.127 289.005 771.44C288.576 771.719 288.934 770.683 289.802 769.141C290.668 767.596 291.163 765.968 290.899 765.519C290.595 765.003 290.839 764.874 291.566 765.167C293.343 765.882 299.199 757.555 299.16 754.369C299.155 753.84 296.852 751.228 294.044 748.564C291.236 745.899 287.431 742.272 285.586 740.502L282.235 737.283L281.948 739.384C281.788 740.54 281.685 739.424 281.717 736.907C281.751 734.39 281.985 732.46 282.241 732.622C284.245 733.881 284.946 720.853 283.029 717.989C282.349 716.976 281.735 714.638 281.664 712.793C281.344 704.518 278.733 701.861 272.902 703.879ZM65.7207 813.62C63.9049 815.586 62.989 816.029 61.143 815.832C56.512 815.338 56.2777 821.212 60.8555 823.04C64.0416 824.311 67.0165 834.131 67.139 843.772C67.2437 851.894 67.2934 852.148 68.8234 852.148C70.7103 852.148 71.2623 850.877 71.2623 846.542C71.2623 844.755 71.6191 843.062 72.0539 842.781C72.5279 842.473 72.6965 841.104 72.4728 839.366C72.1959 837.193 72.5332 835.612 73.813 833.087C79.1841 822.485 72.464 806.317 65.7207 813.62ZM70.5523 843.658C70.5523 845.452 68.9193 846.141 68.0726 844.705C67.8241 844.282 68.1081 844.157 68.74 844.411C70.0819 844.951 70.2292 843.168 68.9548 841.819C68.243 841.067 68.314 840.979 69.3098 841.378C70.0145 841.659 70.5523 842.645 70.5523 843.658ZM116.727 843.902C115.655 846.004 115.811 846.777 117.499 847.725C119.519 848.86 122.065 846.421 121.344 844.038C120.73 842.007 117.739 841.918 116.727 843.902ZM104.07 853.504C101.451 855.889 101.98 858.111 105.165 858.098C108.734 858.083 109.764 857.268 109.482 854.676C109.187 851.973 106.411 851.373 104.07 853.504ZM87.1769 860.613C85.993 863.853 89.9122 868.531 92.8268 867.358C94.2397 866.789 94.3479 864.366 92.9972 863.55C92.454 863.222 91.8931 862.283 91.7476 861.463C91.421 859.606 87.7929 858.931 87.1769 860.613ZM119.542 921.452C119.542 921.862 118.823 922.192 117.945 922.186C116.653 922.177 116.551 922.037 117.412 921.452C118.79 920.519 119.542 920.519 119.542 921.452ZM225.332 927.403C224.747 927.807 223.389 928.143 222.315 928.148C221.241 928.154 220.362 928.519 220.362 928.959C220.362 929.396 219.883 930.259 219.299 930.874C214.821 935.574 219.778 940.515 224.809 936.364C226.326 935.11 226.669 935.053 227.011 935.992C227.535 937.422 229.875 937.422 231.005 935.993C232.18 934.507 231.401 932.631 229.608 932.631C228.337 932.631 228.268 932.448 229.049 931.138C230.622 928.495 227.828 925.687 225.332 927.403Z" fill="#12BFFE"/>
<path fill-rule="evenodd" clip-rule="evenodd" d="M179.619 2.49646C178.619 3.86951 176.447 5.57977 174.789 6.29703C173.131 7.01616 170.816 8.0222 169.645 8.53639C168.473 9.04873 165.758 9.89081 163.61 10.4069C155.368 12.3873 152.898 14.2838 151.914 19.3755C149.896 29.8382 144.699 36.6066 139.518 35.5186C136.898 34.969 133.753 37.0836 131.046 41.2139C127.458 46.6856 122.698 46.6055 121.111 41.0443C119.331 34.8088 110.104 37.1525 106.425 44.776C105.48 46.7322 104.348 48.5654 103.909 48.8504C102.523 49.7503 100.452 55.4064 100.436 58.3388C100.414 62.1525 99.1187 61.383 91.0744 52.787C83.0585 44.219 79.734 43.8966 78.7595 51.5947C78.314 55.1028 76.0934 60.3621 75.0586 60.3621C74.8403 60.3621 74.8456 58.7357 75.0693 56.7478C75.4367 53.5043 75.2574 52.8522 73.3333 50.4023C71.9346 48.6213 71.0223 46.4434 70.7116 44.1426L70.2342 40.614L66.6469 40.3942L63.0596 40.1725L62.0372 43.7476C61.1976 46.6819 60.5196 47.5892 58.2423 48.8244C55.049 50.557 54.3887 51.9039 54.3195 56.8335C54.2556 61.3439 51.0713 63.5702 46.9284 61.9978C45.6398 61.5078 43.6074 61.1073 42.4164 61.1073C40.0787 61.1073 39.3598 59.4473 39.3598 54.0595C39.3598 51.4959 35.5081 46.6409 32.5083 45.4243C31.6687 45.0853 26.2816 44.7145 20.5359 44.6046C8.68782 44.3754 8.56712 44.4295 7.71867 50.3595C7.35835 52.8895 6.6022 54.1973 4.14737 56.5429C-0.859901 61.3253 -1.04273 62.3537 2.04755 68.3228C3.49417 71.1173 5.06505 73.7386 5.54075 74.1485C6.01467 74.5583 7.15954 76.2351 8.08432 77.8745C10.4415 82.0533 13.0241 84.8628 15.9742 86.4556C19.7194 88.4789 22.3837 93.0116 23.3103 98.9361L24.0948 103.957L26.7271 104.186C30.0837 104.479 31.9687 103.409 32.5775 100.87C33.1899 98.3045 35.0892 95.3404 35.1229 96.8979C35.1602 98.6361 37.6736 101.349 39.248 101.349C42.6063 101.349 42.6826 110.027 39.3438 112.331C34.3898 115.75 33.6798 116.49 33.6798 118.239C33.6798 119.448 34.246 120.242 35.4548 120.724C36.4311 121.114 37.2298 121.559 37.2298 121.712C37.2298 123.215 35.3785 126.876 34.3153 127.474C32.2261 128.648 32.6042 132.001 35.1105 134.522C36.2891 135.707 37.5671 137.864 37.9505 139.319C38.8415 142.689 39.2782 143.282 41.6868 144.394C42.7714 144.893 43.8648 145.894 44.115 146.615C46.5628 153.672 53.4178 160.196 59.6197 161.372C61.1675 161.664 62.7774 162.19 63.1981 162.536C63.9649 163.17 65.6813 163.006 67.8841 162.089C68.8035 161.707 69.1266 162.07 69.3041 163.682C69.494 165.405 70.1507 166.031 73.0848 167.279C75.0373 168.11 76.7626 169.107 76.917 169.493C78.9814 174.631 85.8471 175.175 85.8932 170.204C85.9411 164.852 88.8788 161.666 95.0948 160.226C97.0775 159.768 100.42 158.102 102.663 156.459C104.873 154.838 107.2 153.513 107.834 153.513C110.04 153.513 119.233 160.761 120.463 163.468C121.109 164.891 122.242 166.255 122.978 166.501C131.133 169.217 134.739 182.169 126.972 180.846C122.437 180.073 118.859 185.748 121.358 189.749C122.469 191.53 122.881 191.663 126.228 191.32C131.41 190.789 136.539 193.936 136.607 197.688C136.656 200.465 142.548 205.47 146.884 206.414C151.286 207.374 154.083 210.448 153.336 213.503C153.136 214.323 152.772 215.748 152.527 216.67C152.138 218.14 152.347 218.347 154.224 218.347C157.47 218.347 160.77 222.613 160.77 226.812C160.77 230.08 162.326 232.422 165.207 233.489C166.23 233.868 166.45 234.87 166.45 239.162C166.45 244.889 166.713 245.266 171.42 246.277C172.787 246.572 177.579 249.362 182.07 252.479C192.723 259.872 199.403 263.274 202.065 262.661C204.225 262.161 207.09 264.051 205.315 264.803C204.756 265.042 204.726 265.198 205.235 265.235C205.676 265.269 206.442 264.783 206.938 264.155C208.242 262.504 206.746 259.348 204.628 259.287L203.015 259.238L204.673 258.542C206.258 257.875 206.313 257.605 205.899 252.44C205.198 243.703 206.055 239.898 208.952 238.876C212.014 237.793 213.147 236.113 213.688 231.846C214.181 227.975 214.245 227.779 216.042 224.681C217.295 222.522 217.493 222.453 221.892 222.686C228.459 223.03 233.28 220.698 235.487 216.106C237.059 212.832 237.175 212.756 240.645 212.679C245.803 212.566 245.712 212.598 248.252 209.993C251.133 207.04 252.36 204.641 252.36 201.958C252.36 200.825 252.839 199.482 253.425 198.971C254.836 197.742 254.781 193.777 253.32 191.59C252.232 189.958 252.236 189.788 253.361 189.127C254.025 188.738 254.863 187.607 255.221 186.616C255.612 185.539 256.446 184.812 257.293 184.812C258.074 184.812 260.077 184.164 261.748 183.372C263.418 182.58 265.344 181.753 266.027 181.533C268.006 180.896 267.635 177.468 265.495 176.615C262.806 175.542 263.313 175.294 267.978 175.4C270.321 175.454 272.238 175.749 272.238 176.056C272.24 176.363 272.719 176.615 273.305 176.615C273.899 176.615 274.37 177.28 274.37 178.122C274.37 181.151 280.543 181.934 283.932 179.333C285.616 178.04 284.917 173.191 282.952 172.537C280.394 171.685 277.748 168.747 278.766 167.89C281.754 165.379 287.15 166.566 287.15 169.733C287.15 171.959 290.153 173.548 291.743 172.162C293.483 170.646 293.146 167.676 291.232 167.656L289.635 167.639L291.41 166.182C293.717 164.287 294.495 164.308 293.511 166.238C292.844 167.546 292.949 167.846 294.197 168.187C295.457 168.533 295.67 169.17 295.67 172.604C295.67 176.315 295.794 176.615 297.335 176.615C299.47 176.615 301.35 178.798 301.35 181.282C301.35 182.554 301.829 183.381 302.743 183.685C304.809 184.374 307.03 182.821 307.03 180.688C307.03 179.678 307.349 178.851 307.74 178.851C308.13 178.851 308.45 177.696 308.45 176.285C308.45 173.619 310.392 169.394 313.093 166.182C313.954 165.157 315.489 162.139 316.505 159.475C317.52 156.811 318.36 154.927 318.37 155.291C318.381 155.654 319.061 155.054 319.881 153.961C320.836 152.688 321.228 151.371 320.972 150.303C320.603 148.755 320.775 148.657 323.386 148.917C326.161 149.195 326.2 149.163 326.2 146.691C326.2 144.992 326.658 143.885 327.62 143.254C329.508 142.015 329.413 140.957 327.334 140.128C324.904 139.157 324.494 138.062 325.784 135.994C326.402 135.002 326.91 133.37 326.91 132.368C326.91 129.777 330.398 124.473 332.183 124.346C332.993 124.288 334.773 124.303 336.14 124.379C338.222 124.493 338.769 124.184 339.512 122.472C340.707 119.72 340.673 119.511 338.57 116.614C334.633 111.199 329.118 110.91 316.26 115.448C312.449 116.793 312.319 116.793 310.889 115.422C308.926 113.54 306.737 113.648 305.379 115.694C304.266 117.369 304.264 117.367 304.227 114.949C304.169 111.187 301.907 109.287 298.031 109.745C294.379 110.178 288.281 105.975 287.437 102.448C286.765 99.6347 283.871 97.6245 280.486 97.6152C278.069 97.6096 276.777 96.9668 273 93.8891C267.895 89.7308 267.815 89.701 266.503 91.361C264.9 93.388 264.533 90.7816 264.479 76.9598L264.43 64.1217L262.477 62.8529C258.219 60.0863 256.991 55.3356 260.736 56.1218C263.395 56.6789 263.814 56.256 265.752 51.0469C266.668 48.5877 267.891 45.4579 268.471 44.0904C269.808 40.9344 269.233 38.505 266.879 37.3798C265.866 36.8935 263.746 35.4106 262.17 34.0841C258.938 31.3622 254.626 30.9672 247.551 32.7483C243.148 33.8568 239.954 32.9998 236.635 29.8178C232.956 26.2892 226.505 25.7545 222.458 28.6403C219.567 30.7027 219.197 30.5741 212.36 25.0968C210.56 23.653 206.842 21.7285 204.098 20.8193C199.262 19.219 199.01 19.0122 195.982 14.1888C192.384 8.45628 184.438 0 182.647 0C181.979 0 180.616 1.12341 179.619 2.49646ZM320.52 141.89C320.52 142.464 319.513 143.302 318.283 143.753C315.323 144.837 315.342 144.85 316.68 142.708C317.925 140.713 320.52 140.161 320.52 141.89ZM307.894 145.892C308.697 146.913 308.62 146.946 307.253 146.182C305.163 145.014 304.9 145.078 304.9 146.762C304.9 147.557 304.58 148.416 304.19 148.67C303.799 148.923 303.48 150.035 303.48 151.142C303.48 152.312 300.876 157.359 300.093 157.874C298.036 159.222 299.578 152.355 301.447 149.86L302.892 147.934L301.286 147.535C298.675 146.889 298.954 145.532 301.849 144.791C304.997 143.988 306.63 144.284 307.894 145.892ZM324.054 157.053C324.047 157.77 322.735 159.326 321.139 160.511C318.361 162.575 318.26 162.791 318.7 165.69C319.435 170.514 320.71 171.579 323.049 169.329C323.805 168.598 325.703 167.676 327.265 167.279C330.311 166.502 331.855 162.331 329.629 160.887C329.091 160.539 328.79 159.317 328.921 158.015C329.136 155.868 329.013 155.749 326.608 155.749C324.67 155.749 324.066 156.056 324.054 157.053ZM300.093 168.187C298.929 168.96 300.469 163.784 300.093 162.596C299.937 162.108 300.556 161.415 301.469 161.057C303.361 160.312 301.785 167.063 300.093 168.187ZM264.698 163.199C265.04 163.55 265.062 164.785 264.748 165.942C264.219 167.879 264.153 167.915 263.899 166.383C263.748 165.468 262.767 163.997 261.719 163.112L259.815 161.504L261.945 162.033C263.116 162.324 264.355 162.849 264.698 163.199ZM275.03 166.741C274.986 168.529 274.908 168.6 274.409 167.3C274.095 166.48 273.976 165.558 274.146 165.251C274.746 164.159 275.08 164.72 275.03 166.741ZM210.234 257.595C209.101 258.782 209.786 262.223 211.251 262.711C213.324 263.4 214.252 262.139 213.681 259.408C213.223 257.217 211.469 256.297 210.234 257.595Z" fill="#9FECFF"/>
<path fill-rule="evenodd" clip-rule="evenodd" d="M147.408 219.493L142.972 221.608L142.971 225.565C142.969 229.367 142.864 229.582 140.329 231.014C138.879 231.834 136.943 233.678 136.028 235.113C133.242 239.485 126.639 240.143 125.208 236.19C124.461 234.127 123.387 233.978 118.248 235.223C115.284 235.942 114.242 235.882 111.789 234.85C109.984 234.094 106.83 233.623 103.553 233.623C97.2661 233.623 96.9838 234.219 100.158 240.795L102.071 244.765L100.424 246.606C99.3872 247.765 97.8199 248.532 96.2011 248.674C94.0054 248.866 93.5953 249.192 93.4072 250.891C93.2865 252.001 92.4203 253.412 91.4547 254.077C88.2419 256.286 90.4891 260.471 95.6135 261.825C101.453 263.368 104.567 265.376 109.006 270.462C111.431 273.238 115.14 276.901 117.247 278.6C123.767 283.853 130.434 288.761 133.032 290.218C134.399 290.983 136.955 292.979 138.712 294.65C141.581 297.379 142.284 297.69 145.589 297.699C151.844 297.718 161.977 304.684 159.68 307.387C157.366 310.113 157.588 316.406 160.153 320.812C164.539 328.346 166.038 330.491 167.201 330.889C167.836 331.107 169.546 332.501 171.003 333.986C173.43 336.46 175.148 337.048 178.139 336.428C179.761 336.091 180.474 336.572 180.883 338.276C181.5 340.858 184.257 345.145 185.927 346.118C187.111 346.809 187.306 347.56 187.101 350.652C186.689 356.858 192.615 367.097 198.047 369.564C199.245 370.108 201.002 371.643 201.952 372.977C208.008 381.487 221.653 394.737 223.84 394.232C225.758 393.791 226.042 393.927 226.042 395.29C226.042 401.127 233.203 412.659 236.685 412.432C237.665 412.367 238.787 412.35 239.177 412.395C239.602 412.441 239.887 415.692 239.887 420.484C239.887 429.63 241.21 433.7 244.749 435.465C246.636 436.404 246.741 436.685 246.316 439.657C245.216 447.36 254.909 448.99 257.494 441.536C257.707 440.922 257.905 441.421 257.935 442.647C257.969 443.953 258.718 445.648 259.746 446.745C260.71 447.774 262.501 449.873 263.724 451.41C265.561 453.717 266.409 454.205 268.58 454.205C272.176 454.205 273.634 455.543 274.111 459.285C274.466 462.071 280.494 467.619 283.164 467.619C285.153 467.619 292.39 473.668 292.186 475.162C291.817 477.877 289.383 480.129 286.211 480.692C284.323 481.027 282.525 482.061 280.939 483.725C279.617 485.113 278.226 486.249 277.849 486.249C276.136 486.249 277.212 490.43 279.25 491.693C280.396 492.404 281.548 493.69 281.809 494.551C282.068 495.41 283.219 497.5 284.363 499.191C285.507 500.885 287.232 503.523 288.194 505.051C289.234 506.707 290.734 508.028 291.895 508.315C292.969 508.579 294.646 509.567 295.622 510.506C296.599 511.445 298.487 512.507 299.82 512.862C301.79 513.39 302.426 514.062 303.214 516.451C303.748 518.068 305.049 520.115 306.107 521L308.031 522.61L304.668 524.326C301.703 525.838 301.302 526.325 301.302 528.411C301.302 531.15 300.594 531.891 296.687 533.251C291.268 535.137 290.201 541.05 294.966 542.794C297.296 543.645 297.55 544.772 295.952 547.166C295.352 548.064 294.69 551.075 294.479 553.853C293.977 560.485 292.246 568.919 290.965 570.991C290.402 571.898 289.942 573.156 289.942 573.785C289.942 574.493 289.298 574.929 288.254 574.929C285.734 574.929 284.85 576.61 284.434 582.188C284.124 586.385 283.71 587.646 281.964 589.755C280.295 591.767 279.953 592.738 280.29 594.506C280.522 595.726 280.712 597.883 280.712 599.298C280.712 601.596 281.014 601.999 283.575 603.117L286.438 604.365L286.238 609.932L286.037 615.497L288.87 617.056C291.385 618.442 291.799 619.064 292.55 622.615C293.015 624.814 293.931 628.083 294.584 629.879C296.378 634.811 295.754 642.704 293.153 647.96C284.837 664.77 284.113 669.483 288.82 676.172C289.211 676.727 289.626 679.687 289.742 682.75C289.857 685.813 290.262 688.928 290.642 689.671C291.142 690.653 291.041 691.281 290.271 691.95C289.687 692.46 289.273 693.583 289.351 694.45C289.848 699.968 287.015 705.024 282.397 706.867C280.957 707.443 280.874 707.754 281.509 710.174C281.896 711.642 282.013 713.505 281.768 714.313C281.49 715.236 281.87 716.508 282.793 717.741C284.933 720.596 284.434 734.002 282.241 732.621C281.985 732.459 281.751 734.389 281.717 736.906C281.685 739.423 281.788 740.539 281.948 739.384L282.235 737.283L285.586 740.502C287.431 742.272 291.236 745.899 294.044 748.563C296.852 751.227 299.155 753.839 299.16 754.369C299.199 757.554 293.343 765.882 291.566 765.167C290.839 764.874 290.595 765.003 290.899 765.519C291.163 765.968 290.668 767.596 289.802 769.14C288.934 770.683 288.576 771.719 289.005 771.439C289.49 771.126 289.953 771.866 290.224 773.386C290.583 775.385 291.158 776.024 293.32 776.822C299.536 779.113 301.121 783.625 299.257 793.719C297.719 802.053 300.422 814.768 303.131 811.925C303.974 811.04 309.299 810.841 312.588 811.571C315.351 812.186 317.588 810.038 317.616 806.742C317.678 799.554 325 793.235 329.305 796.654C331.552 798.437 333.465 797.956 335.285 795.152C336.517 793.252 337.647 792.449 339.545 792.123C343.379 791.463 345.166 790.325 346.726 787.549C348.505 784.386 351.091 783.337 355.743 783.894C360.041 784.408 361.232 783.571 361.954 779.531C362.598 775.918 368.028 772.982 370.217 775.061C371.47 776.25 371.733 776.231 374.793 774.72C378.46 772.911 378.312 773.194 379.422 765.884L380.242 760.476L383.119 760.667C385.748 760.842 386.055 760.667 386.71 758.624C387.104 757.394 387.649 756.22 387.922 756.015C388.196 755.81 388.838 754.804 389.349 753.78C389.859 752.755 390.865 751.479 391.584 750.942C393.276 749.683 393.235 748.478 391.423 746.058C389.775 743.861 389.82 740.565 391.488 741.031C396.212 742.352 397.433 736.856 393.556 731.735C391.678 729.255 391.501 728.579 391.897 725.441C392.182 723.187 392.058 721.743 391.552 721.415C391.117 721.132 390.762 720.344 390.762 719.662C390.762 718.684 390.993 718.77 391.865 720.074C394.481 723.996 399.595 723.724 399.153 719.686C398.95 717.844 398.615 717.613 395.835 717.404C393.143 717.201 392.901 717.048 393.971 716.227C395.031 715.414 395.076 715.033 394.286 713.479C393.446 711.824 393.469 711.761 394.564 712.709C395.592 713.6 395.94 713.574 397.044 712.523C397.75 711.852 398.863 711.303 399.515 711.303C401.292 711.303 400.956 708.821 398.927 706.971C397.951 706.081 397.152 704.898 397.152 704.344C397.152 703.789 396.538 702.753 395.787 702.04C394.772 701.075 394.518 700.113 394.8 698.293C395.019 696.877 394.847 695.627 394.39 695.331C393.16 694.534 393.419 693.788 396.087 690.437C397.454 688.719 398.572 687.782 398.572 688.354C398.572 688.926 398.278 689.712 397.917 690.102C394.2 694.12 398.631 700.749 404.353 699.733C407.06 699.255 407.215 699.092 406.842 697.131C406.583 695.776 406.808 694.72 407.477 694.137C408.812 692.974 408.819 690.437 407.488 690.437C406.924 690.437 406.045 689.82 405.536 689.064C405.024 688.309 403.888 687.292 403.01 686.802C402.049 686.267 401.412 685.217 401.412 684.168C401.412 681.969 402.971 680.447 404.055 681.586C405.103 682.685 407.779 681.679 407.904 680.14C408.164 676.876 407.726 675.058 406.404 673.923C405.61 673.243 404.953 672.237 404.943 671.687C404.932 671.138 403.988 669.39 402.843 667.805C400.5 664.554 399.442 659.375 400.64 657.023C401.221 655.887 401.201 654.603 400.567 652.116C399.831 649.225 399.882 648.37 400.931 646.06C401.986 643.738 402.044 642.736 401.354 638.771C400.914 636.241 400.431 633.46 400.282 632.586C400.131 631.712 399.366 630.822 398.579 630.606C396.567 630.054 396.494 624.467 398.492 623.919C400.397 623.396 401.379 614.954 399.754 613.071C399.151 612.37 398.688 610.697 398.723 609.35C398.762 607.925 398.155 606.001 397.268 604.743C396.37 603.467 396.034 602.394 396.449 602.126C396.836 601.874 397.152 602.202 397.152 602.854C397.152 604.464 398.853 605.032 400.647 604.024C402.405 603.037 402.598 600.119 400.997 598.724C400.179 598.01 399.552 597.958 398.689 598.534C396.76 599.819 394.495 596.708 394.877 593.291C395.056 591.667 394.763 589.893 394.147 588.896C393.581 587.978 392.569 585.213 391.902 582.754C391.233 580.295 390.111 577.064 389.408 575.574C388.556 573.767 388.341 572.466 388.765 571.671C389.156 570.94 389.115 569.914 388.661 569.023C388.167 568.056 388.157 567.412 388.631 567.106C389.704 566.408 389.484 563.552 388.208 561.638C386.087 558.46 383.68 550.855 383 545.186C382.626 542.077 382.113 538.173 381.859 536.515C381.509 534.228 381.671 533.259 382.53 532.512C384.214 531.044 383.913 529.341 381.547 526.999C380.384 525.846 379.097 523.597 378.689 522.002C378.279 520.408 377.633 518.9 377.253 518.653C376.873 518.407 376.562 517.581 376.562 516.821C376.562 514.966 375.071 514.502 373.559 515.884C372.068 517.248 370.172 516.015 370.172 513.682C370.172 511.264 368.795 509.351 367.055 509.351C365.398 509.351 361.652 506.316 361.652 504.973C361.652 504.574 360.907 503.301 359.994 502.143C358.001 499.609 355.342 494.191 353.109 488.112C352.204 485.653 350.456 482.299 349.222 480.66C347.988 479.02 346.279 476.45 345.422 474.948L343.861 472.219L345.835 471.744C348.35 471.14 350.535 468.105 349.92 466.069C349.549 464.845 349.068 464.638 347.451 465.011C346.299 465.277 344.832 465.076 344.014 464.539C342.101 463.285 338.932 464.731 338.932 466.857C338.932 467.686 338.464 468.364 337.89 468.364C336.472 468.364 337.276 466.238 339.545 463.986C341.659 461.888 340.361 460.167 336.667 460.167C335.411 460.167 334.672 459.772 334.672 459.103C334.672 458.516 334.252 457.594 333.737 457.054C333.224 456.511 332.228 455.146 331.525 454.019C330.737 452.754 329.617 451.969 328.596 451.969C327.686 451.969 326.525 451.345 326.016 450.583C325.504 449.821 322.372 447.261 319.052 444.895C315.733 442.529 312.114 439.798 311.01 438.829C309.906 437.859 308.658 437.065 308.237 437.065C307.817 437.065 306.398 436.206 305.085 435.156C303.773 434.105 301.187 432.56 299.337 431.724C297.49 430.889 294.495 428.646 292.685 426.742C290.874 424.838 287.605 421.602 285.421 419.553C281.536 415.907 279.702 412.879 277.744 406.884C276.91 404.328 276.046 403.478 271.686 400.922C268.891 399.283 266.212 397.193 265.735 396.278C265.256 395.361 264.329 394.435 263.676 394.217C263.021 393.999 261.235 392.632 259.707 391.179C258.179 389.726 256.129 388.088 255.152 387.538C252.781 386.204 244.502 377.098 244.502 375.822C244.502 375.268 243.704 373.579 242.727 372.072C241.627 370.372 240.952 368.286 240.952 366.583C240.952 365.074 240.306 362.741 239.518 361.402L238.084 358.967L239.873 356.735C242.154 353.892 242.158 350.85 239.887 347.338C238.911 345.829 238.112 343.811 238.112 342.854C238.112 340.672 236.467 339.18 234.708 339.767C233.712 340.098 231.866 338.766 227.569 334.612C224.381 331.53 221.326 329.01 220.783 329.01C218.646 329.01 211.287 321.543 210.815 318.893C210.389 316.512 209.835 316.019 207.863 316.261C206.528 316.425 201.65 304.388 201.746 301.17C201.812 298.978 201.53 298.214 200.548 297.945C199.684 297.707 198.879 296.142 198.088 293.152C197.442 290.711 196.437 288.522 195.857 288.287C195.276 288.055 194.802 287.08 194.802 286.124C194.802 285.167 194.493 284.185 194.115 283.939C192.067 282.611 194.705 277.622 197.465 277.601C198.904 277.592 199.062 277.225 199.062 273.922C199.062 270.391 199.181 270.175 202.231 268.146C203.974 266.987 205.411 265.62 205.426 265.108C205.44 264.595 205.795 264.176 206.214 264.176C206.631 264.176 206.469 263.647 205.853 263.001C205.096 262.205 204.084 261.974 202.728 262.287C200.065 262.9 193.386 259.498 182.732 252.106C178.242 248.989 173.449 246.198 172.082 245.904C167.375 244.892 167.112 244.516 167.112 238.789C167.112 234.496 166.892 233.494 165.87 233.116C162.977 232.043 161.432 229.708 161.432 226.401C161.432 219.016 155.028 215.862 147.408 219.493ZM455.685 417.973C455.44 418.999 455.461 420.22 455.734 420.684C456.036 421.194 455.642 421.14 454.733 420.544C451.116 418.172 449.35 422.852 452.014 427.75C454.045 431.482 455.868 431.826 458.473 428.972C460.694 426.537 460.733 424.186 458.558 423.774C456.217 423.331 455.873 422.386 458.182 422.742C460.697 423.13 461.311 422.075 460.47 418.807C459.68 415.747 456.356 415.167 455.685 417.973ZM448.982 439.673C448.982 442.46 449.208 443.027 450.319 443.027C451.059 443.027 451.822 443.692 452.028 444.517C452.891 447.979 461.052 445.594 461.052 441.881C461.052 439.766 458.802 438.883 455.042 439.524C452.962 439.878 452.603 439.701 452.227 438.125C451.395 434.647 448.982 435.798 448.982 439.673ZM436.921 441.52C436.321 442.693 436.47 443.308 437.649 444.545C440.462 447.498 443.439 444.577 440.769 441.48C439.186 439.645 437.871 439.658 436.921 441.52ZM445.383 444.953C443.97 446.738 445.452 448.573 448.528 448.847C451.645 449.126 452.658 447.466 450.734 445.234C449.211 443.47 446.661 443.336 445.383 444.953ZM446.494 454.212C445.713 455.539 446.897 457.918 448.854 458.956C451.286 460.241 452.532 459.762 452.532 457.538C452.532 454.727 447.743 452.089 446.494 454.212ZM353.842 479.531C353.842 482.055 357.774 486.035 359.304 485.057C361.272 483.797 361.326 480.654 359.405 479.242C357.032 477.497 353.842 477.662 353.842 479.531ZM389.816 518.045C388.252 519.685 389.406 522.019 391.779 522.019C394.234 522.019 395.729 520.097 394.671 518.301C394.177 517.46 390.553 517.27 389.816 518.045ZM401.217 630.777C400.557 633.426 403.269 635.163 405.087 633.257C407.037 631.209 406.349 629.33 403.647 629.33C402.195 629.33 401.471 629.762 401.217 630.777ZM618.814 755.419C618.346 755.911 617.962 757.899 617.962 759.838C617.962 762.927 617.763 763.393 616.365 763.602C612.517 764.175 614.265 770.92 618.262 770.92C621.906 770.92 623.516 767.913 621.182 765.463C620.27 764.505 620.314 764.326 621.537 763.989C623.236 763.523 623.38 760.816 621.903 757.109C620.804 754.346 620.167 754 618.814 755.419ZM606.07 760.235C605.582 760.442 605.182 761.422 605.182 762.411C605.182 763.402 605.582 764.218 606.07 764.224C606.558 764.229 606.159 764.658 605.182 765.178C601.964 766.886 602.605 771.969 606.077 772.268C609.661 772.58 611.32 768.351 608.429 766.273C608.01 765.971 608.672 765.72 609.898 765.714C613.019 765.699 613.66 763.62 611.223 761.42C609.424 759.797 607.921 759.451 606.07 760.235ZM584.415 785.138C582.618 786.237 582.888 788.6 585.05 790.703C587.271 792.862 588.701 793.013 589.994 791.227C592.896 787.216 588.63 782.562 584.415 785.138ZM603.216 786.696C601.325 788.68 603.1 793.037 605.417 792.104C606.366 791.722 606.624 790.93 606.462 788.902C606.235 786.047 604.778 785.056 603.216 786.696ZM592.225 790.86C591.336 791.068 590.982 791.879 590.982 793.721C590.982 797.084 592.122 797.511 602.005 797.852L609.797 798.12L610.023 796.071C610.209 794.362 609.973 794.017 608.603 793.995C602.438 793.895 598.673 793.369 597.248 792.41C595.031 790.921 593.71 790.513 592.225 790.86ZM575.075 797.669C572.082 801.14 575.446 808.475 579.37 807.034C581.403 806.289 582.904 801.473 581.106 801.473C580.7 801.473 579.894 800.508 579.312 799.327C577.959 796.581 576.504 796.013 575.075 797.669ZM571.28 806.712C568.862 807.733 569.043 811.688 571.553 812.691C575.128 814.116 578.531 809.568 575.93 806.839C574.942 805.801 573.53 805.764 571.28 806.712ZM551.201 812.307C550.53 813.154 550.457 814.051 550.94 815.491C551.833 818.155 557.115 818.537 557.467 815.964C557.863 813.059 552.896 810.162 551.201 812.307ZM565.177 819.975C563.823 821.547 563.628 824.243 564.813 825.013C565.332 825.35 564.948 825.913 563.748 826.572C561.358 827.887 561.153 831.414 563.374 833.046C566.679 835.475 570.637 830.721 567.927 827.578C566.654 826.102 566.659 826.065 568.152 826.065C569.45 826.065 569.682 825.637 569.682 823.233C569.682 818.891 567.485 817.3 565.177 819.975ZM552.761 823.528C549.609 825.845 552.939 833.21 556.492 831.779C558.253 831.071 558.051 824.128 556.238 823.11C554.51 822.14 554.676 822.119 552.761 823.528ZM572.861 823.112C572.574 823.599 573.239 824.886 574.391 826.076C575.511 827.233 577.171 829.214 578.078 830.475C579.965 833.098 582.354 833.467 584.127 831.41C586.378 828.798 585.348 826.633 581.394 825.663C580.224 825.376 578.942 824.722 578.547 824.211C577.491 822.846 573.475 822.069 572.861 823.112ZM565.621 837.307C562.923 838.363 562.552 843.412 565.096 844.438C566.723 845.092 569.682 843.464 569.677 841.918C569.668 839.274 567.343 836.632 565.621 837.307ZM68.9548 841.819C70.2292 843.168 70.0819 844.951 68.74 844.411C68.1081 844.157 67.8241 844.282 68.0726 844.705C68.3105 845.109 68.9672 845.441 69.5299 845.441C71.0085 845.441 70.8221 841.983 69.3098 841.378C68.314 840.979 68.243 841.066 68.9548 841.819Z" fill="#04D8EB"/>
</svg>
