<svg width="180" height="140" viewBox="0 0 180 140" fill="none" xmlns="http://www.w3.org/2000/svg">
<path d="M78.75 8.75C75.0094 8.75 72 11.6758 72 15.3125C72 18.9492 75.0094 21.875 78.75 21.875H94.9781L99.5906 30.1602L72 52.5L59.2594 40.1133C55.8844 36.832 51.3 35 46.5187 35H18C13.0219 35 9 38.9102 9 43.75V52.5H36C60.8625 52.5 81 72.0781 81 96.25C81 99.2578 80.6906 102.184 80.1 105H99.9C99.3094 102.184 99 99.2578 99 96.25C99 81.9766 106.031 69.2891 116.916 61.3047L121.247 69.125C113.175 75.5508 108 85.3125 108 96.25C108 115.582 124.116 131.25 144 131.25C163.884 131.25 180 115.582 180 96.25C180 76.918 163.884 61.25 144 61.25C140.203 61.25 136.547 61.8242 133.116 62.8906L117.619 35H135C139.978 35 144 31.0898 144 26.25V17.5C144 12.6602 139.978 8.75 135 8.75H129.262C127.153 8.75 125.128 9.46094 123.497 10.7734L110.166 21.5742L106.228 14.4648C104.259 10.9375 100.463 8.72266 96.3281 8.72266L78.75 8.75ZM130.134 85.0938L138.066 99.3672C139.838 102.566 143.944 103.742 147.206 102.02C150.469 100.297 151.706 96.3047 149.934 93.1328L142.003 78.8594C142.65 78.7773 143.325 78.75 144 78.75C153.928 78.75 162 86.5977 162 96.25C162 105.902 153.928 113.75 144 113.75C134.072 113.75 126 105.902 126 96.25C126 92.0117 127.547 88.1289 130.134 85.0938ZM52.6781 102.812C50.0063 109.238 43.5375 113.75 36 113.75C26.0719 113.75 18 105.902 18 96.25C18 86.5977 26.0719 78.75 36 78.75C43.5656 78.75 50.0344 83.2617 52.6781 89.6875H71.3531C68.2031 73.5 53.5781 61.25 36 61.25C16.1156 61.25 0 76.918 0 96.25C0 115.582 16.1156 131.25 36 131.25C53.5781 131.25 68.2031 119 71.3812 102.812H52.7062H52.6781ZM36 105C38.3869 105 40.6761 104.078 42.364 102.437C44.0518 100.796 45 98.5706 45 96.25C45 93.9294 44.0518 91.7038 42.364 90.0628C40.6761 88.4219 38.3869 87.5 36 87.5C33.6131 87.5 31.3239 88.4219 29.636 90.0628C27.9482 91.7038 27 93.9294 27 96.25C27 98.5706 27.9482 100.796 29.636 102.437C31.3239 104.078 33.6131 105 36 105Z" fill="#04D8EB"/>
</svg>
