<svg width="341" height="266" viewBox="0 0 341 266" fill="none" xmlns="http://www.w3.org/2000/svg">
<path fill-rule="evenodd" clip-rule="evenodd" d="M179.619 2.49646C178.619 3.86951 176.447 5.57977 174.789 6.29703C173.131 7.01616 170.816 8.0222 169.645 8.53639C168.473 9.04873 165.758 9.89081 163.61 10.4069C155.368 12.3873 152.898 14.2838 151.914 19.3755C149.896 29.8382 144.699 36.6066 139.518 35.5186C136.898 34.969 133.753 37.0836 131.046 41.2139C127.458 46.6856 122.698 46.6055 121.111 41.0443C119.331 34.8088 110.104 37.1525 106.425 44.776C105.48 46.7322 104.348 48.5654 103.909 48.8504C102.523 49.7503 100.452 55.4064 100.436 58.3388C100.414 62.1525 99.1187 61.383 91.0744 52.787C83.0585 44.219 79.734 43.8966 78.7595 51.5947C78.314 55.1028 76.0934 60.3621 75.0586 60.3621C74.8403 60.3621 74.8456 58.7357 75.0693 56.7478C75.4367 53.5043 75.2574 52.8522 73.3333 50.4023C71.9346 48.6213 71.0223 46.4434 70.7116 44.1426L70.2342 40.614L66.6469 40.3942L63.0596 40.1725L62.0372 43.7476C61.1976 46.6819 60.5196 47.5892 58.2423 48.8244C55.049 50.557 54.3887 51.9039 54.3195 56.8335C54.2556 61.3439 51.0713 63.5702 46.9284 61.9978C45.6398 61.5078 43.6074 61.1073 42.4164 61.1073C40.0787 61.1073 39.3598 59.4473 39.3598 54.0595C39.3598 51.4959 35.5081 46.6409 32.5083 45.4243C31.6687 45.0853 26.2816 44.7145 20.5359 44.6046C8.68782 44.3754 8.56712 44.4295 7.71867 50.3595C7.35835 52.8895 6.6022 54.1973 4.14737 56.5429C-0.859901 61.3253 -1.04273 62.3537 2.04755 68.3228C3.49417 71.1173 5.06505 73.7386 5.54075 74.1485C6.01467 74.5583 7.15954 76.2351 8.08432 77.8745C10.4415 82.0533 13.0241 84.8628 15.9742 86.4556C19.7194 88.4789 22.3837 93.0116 23.3103 98.9361L24.0948 103.957L26.7271 104.186C30.0837 104.479 31.9687 103.409 32.5775 100.87C33.1899 98.3045 35.0892 95.3404 35.1229 96.8979C35.1602 98.6361 37.6736 101.349 39.248 101.349C42.6063 101.349 42.6826 110.027 39.3438 112.331C34.3898 115.75 33.6798 116.49 33.6798 118.239C33.6798 119.448 34.246 120.242 35.4548 120.724C36.4311 121.114 37.2298 121.559 37.2298 121.712C37.2298 123.215 35.3785 126.876 34.3153 127.474C32.2261 128.648 32.6042 132.001 35.1105 134.522C36.2891 135.707 37.5671 137.864 37.9505 139.319C38.8415 142.689 39.2782 143.282 41.6868 144.394C42.7714 144.893 43.8648 145.894 44.115 146.615C46.5628 153.672 53.4178 160.196 59.6197 161.372C61.1675 161.664 62.7774 162.19 63.1981 162.536C63.9649 163.17 65.6813 163.006 67.8841 162.089C68.8035 161.707 69.1266 162.07 69.3041 163.682C69.494 165.405 70.1507 166.031 73.0848 167.279C75.0373 168.11 76.7626 169.107 76.917 169.493C78.9814 174.631 85.8471 175.175 85.8932 170.204C85.9411 164.852 88.8788 161.666 95.0948 160.226C97.0775 159.768 100.42 158.102 102.663 156.459C104.873 154.838 107.2 153.513 107.834 153.513C110.04 153.513 119.233 160.761 120.463 163.468C121.109 164.891 122.242 166.255 122.978 166.501C131.133 169.217 134.739 182.169 126.972 180.846C122.437 180.073 118.859 185.748 121.358 189.749C122.469 191.53 122.881 191.663 126.228 191.32C131.41 190.789 136.539 193.936 136.607 197.688C136.656 200.465 142.548 205.47 146.884 206.414C151.286 207.374 154.083 210.448 153.336 213.503C153.136 214.323 152.772 215.748 152.527 216.67C152.138 218.14 152.347 218.347 154.224 218.347C157.47 218.347 160.77 222.613 160.77 226.812C160.77 230.08 162.326 232.422 165.207 233.489C166.23 233.868 166.45 234.87 166.45 239.162C166.45 244.889 166.713 245.266 171.42 246.277C172.787 246.572 177.579 249.362 182.07 252.479C192.723 259.872 199.403 263.274 202.065 262.661C204.225 262.161 207.09 264.051 205.315 264.803C204.756 265.042 204.726 265.198 205.235 265.235C205.676 265.269 206.442 264.783 206.938 264.155C208.242 262.504 206.746 259.348 204.628 259.287L203.015 259.238L204.673 258.542C206.258 257.875 206.313 257.605 205.899 252.44C205.198 243.703 206.055 239.898 208.952 238.876C212.014 237.793 213.147 236.113 213.688 231.846C214.181 227.975 214.245 227.779 216.042 224.681C217.295 222.522 217.493 222.453 221.892 222.686C228.459 223.03 233.28 220.698 235.487 216.106C237.059 212.832 237.175 212.756 240.645 212.679C245.803 212.566 245.712 212.598 248.252 209.993C251.133 207.04 252.36 204.641 252.36 201.958C252.36 200.825 252.839 199.482 253.425 198.971C254.836 197.742 254.781 193.777 253.32 191.59C252.232 189.958 252.236 189.788 253.361 189.127C254.025 188.738 254.863 187.607 255.221 186.616C255.612 185.539 256.446 184.812 257.293 184.812C258.074 184.812 260.077 184.164 261.748 183.372C263.418 182.58 265.344 181.753 266.027 181.533C268.006 180.896 267.635 177.468 265.495 176.615C262.806 175.542 263.313 175.294 267.978 175.4C270.321 175.454 272.238 175.749 272.238 176.056C272.24 176.363 272.719 176.615 273.305 176.615C273.899 176.615 274.37 177.28 274.37 178.122C274.37 181.151 280.543 181.934 283.932 179.333C285.616 178.04 284.917 173.191 282.952 172.537C280.394 171.685 277.748 168.747 278.766 167.89C281.754 165.379 287.15 166.566 287.15 169.733C287.15 171.959 290.153 173.548 291.743 172.162C293.483 170.646 293.146 167.676 291.232 167.656L289.635 167.639L291.41 166.182C293.717 164.287 294.495 164.308 293.511 166.238C292.844 167.546 292.949 167.846 294.197 168.187C295.457 168.533 295.67 169.17 295.67 172.604C295.67 176.315 295.794 176.615 297.335 176.615C299.47 176.615 301.35 178.798 301.35 181.282C301.35 182.554 301.829 183.381 302.743 183.685C304.809 184.374 307.03 182.821 307.03 180.688C307.03 179.678 307.349 178.851 307.74 178.851C308.13 178.851 308.45 177.696 308.45 176.285C308.45 173.619 310.392 169.394 313.093 166.182C313.954 165.157 315.489 162.139 316.505 159.475C317.52 156.811 318.36 154.927 318.37 155.291C318.381 155.654 319.061 155.054 319.881 153.961C320.836 152.688 321.228 151.371 320.972 150.303C320.603 148.755 320.775 148.657 323.386 148.917C326.161 149.195 326.2 149.163 326.2 146.691C326.2 144.992 326.658 143.885 327.62 143.254C329.508 142.015 329.413 140.957 327.334 140.128C324.904 139.157 324.494 138.062 325.784 135.994C326.402 135.002 326.91 133.37 326.91 132.368C326.91 129.777 330.398 124.473 332.183 124.346C332.993 124.288 334.773 124.303 336.14 124.379C338.222 124.493 338.769 124.184 339.512 122.472C340.707 119.72 340.673 119.511 338.57 116.614C334.633 111.199 329.118 110.91 316.26 115.448C312.449 116.793 312.319 116.793 310.889 115.422C308.926 113.54 306.737 113.648 305.379 115.694C304.266 117.369 304.264 117.367 304.227 114.949C304.169 111.187 301.907 109.287 298.031 109.745C294.379 110.178 288.281 105.975 287.437 102.448C286.765 99.6347 283.871 97.6245 280.486 97.6152C278.069 97.6096 276.777 96.9668 273 93.8891C267.895 89.7308 267.815 89.701 266.503 91.361C264.9 93.388 264.533 90.7816 264.479 76.9598L264.43 64.1217L262.477 62.8529C258.219 60.0863 256.991 55.3356 260.736 56.1218C263.395 56.6789 263.814 56.256 265.752 51.0469C266.668 48.5877 267.891 45.4579 268.471 44.0904C269.808 40.9344 269.233 38.505 266.879 37.3798C265.866 36.8935 263.746 35.4106 262.17 34.0841C258.938 31.3622 254.626 30.9672 247.551 32.7483C243.148 33.8568 239.954 32.9998 236.635 29.8178C232.956 26.2892 226.505 25.7545 222.458 28.6403C219.567 30.7027 219.197 30.5741 212.36 25.0968C210.56 23.653 206.842 21.7285 204.098 20.8193C199.262 19.219 199.01 19.0122 195.982 14.1888C192.384 8.45628 184.438 0 182.647 0C181.979 0 180.616 1.12341 179.619 2.49646ZM320.52 141.89C320.52 142.464 319.513 143.302 318.283 143.753C315.323 144.837 315.342 144.85 316.68 142.708C317.925 140.713 320.52 140.161 320.52 141.89ZM307.894 145.892C308.697 146.913 308.62 146.946 307.253 146.182C305.163 145.014 304.9 145.078 304.9 146.762C304.9 147.557 304.58 148.416 304.19 148.67C303.799 148.923 303.48 150.035 303.48 151.142C303.48 152.312 300.876 157.359 300.093 157.874C298.036 159.222 299.578 152.355 301.447 149.86L302.892 147.934L301.286 147.535C298.675 146.889 298.954 145.532 301.849 144.791C304.997 143.988 306.63 144.284 307.894 145.892ZM324.054 157.053C324.047 157.77 322.735 159.326 321.139 160.511C318.361 162.575 318.26 162.791 318.7 165.69C319.435 170.514 320.71 171.579 323.049 169.329C323.805 168.598 325.703 167.676 327.265 167.279C330.311 166.502 331.855 162.331 329.629 160.887C329.091 160.539 328.79 159.317 328.921 158.015C329.136 155.868 329.013 155.749 326.608 155.749C324.67 155.749 324.066 156.056 324.054 157.053ZM300.093 168.187C298.929 168.96 300.469 163.784 300.093 162.596C299.937 162.108 300.556 161.415 301.469 161.057C303.361 160.312 301.785 167.063 300.093 168.187ZM264.698 163.199C265.04 163.55 265.062 164.785 264.748 165.942C264.219 167.879 264.153 167.915 263.899 166.383C263.748 165.468 262.767 163.997 261.719 163.112L259.815 161.504L261.945 162.033C263.116 162.324 264.355 162.849 264.698 163.199ZM275.03 166.741C274.986 168.529 274.908 168.6 274.409 167.3C274.095 166.48 273.976 165.558 274.146 165.251C274.746 164.159 275.08 164.72 275.03 166.741ZM210.234 257.595C209.101 258.782 209.786 262.223 211.251 262.711C213.324 263.4 214.252 262.139 213.681 259.408C213.223 257.217 211.469 256.297 210.234 257.595Z" fill="#9FECFF"/>
</svg>
