<svg width="245" height="235" viewBox="0 0 245 235" fill="none" xmlns="http://www.w3.org/2000/svg">
<path fill-rule="evenodd" clip-rule="evenodd" d="M215.902 0.87885C214.926 1.21606 212.849 1.87744 211.287 2.34878C208.067 3.32128 205.907 5.10421 202.613 9.50468C199.721 13.3667 194.306 15.4459 190.243 14.2536C186.709 13.2158 184.282 14.3206 182.728 17.6759L181.467 20.3922L174.974 20.7369C170.769 20.9604 168.315 20.8002 168.009 20.2823C166.012 16.8897 162.322 20.5543 162.926 25.333C163.247 27.8648 163.046 29.7819 162.253 31.7753C161.632 33.3347 161.268 35.1921 161.445 35.9038C162.019 38.2065 156.598 38.4039 153.499 36.1944C151.798 34.9816 149.97 34.3854 147.948 34.3854C145.545 34.3854 144.707 34.0203 143.811 32.5857C141.338 28.6231 137.998 29.3478 135.369 34.4171L133.482 38.0574L130.997 36.8129L128.512 35.5684L125.766 38.8176C122.795 42.3331 122.764 43.2534 125.514 46.3851C127.071 48.1569 127.216 48.9543 127.216 55.6556C127.216 64.1435 129.197 69.0098 133.01 69.891C134.185 70.163 134.962 70.8356 134.962 71.5808C134.962 73.5444 140.877 78.3435 142.684 77.848C144.153 77.4437 146.322 78.6584 146.322 79.8843C146.322 80.2178 145.444 80.5959 144.37 80.7245C141.697 81.0486 141.152 86.3806 143.457 89.654L144.945 91.7666H142.604C140.014 91.7666 135.447 88.892 134.222 86.4906C133.068 84.2288 130.409 84.8716 130.122 87.4817C129.747 90.9022 127.152 88.9218 127.152 85.2163C127.152 83.2321 122.385 76.8606 120.908 76.8699C120.242 76.8736 117.94 77.7604 115.792 78.841C112.491 80.5028 110.854 80.8213 105.197 80.8977C100.597 80.9611 98.415 81.276 98.2145 81.9075C98.0547 82.4105 97.5719 82.8241 97.1406 82.8241C96.711 82.8241 95.6141 83.5581 94.7035 84.4561L93.0474 86.09L89.8453 84.4561C84.2843 81.6206 74.6123 82.5689 74.6123 85.9503C74.6123 86.7178 75.4004 88.9777 76.3642 90.9749C78.4179 95.2263 78.4623 95.1555 71.6054 98.3841C67.6862 100.23 66.6266 101.128 65.4054 103.642L63.9339 106.671H58.7101C54.9329 106.671 53.2413 106.362 52.6023 105.553C51.019 103.552 47.2116 104.152 45.5023 106.671C44.668 107.9 43.5693 108.907 43.0599 108.907C41.986 108.907 37.6923 113.952 37.6923 115.211C37.6923 116.47 39.2259 117.849 40.6264 117.849C41.3026 117.849 42.0783 118.604 42.3481 119.526C42.6179 120.448 43.438 121.802 44.171 122.536C46.0472 124.414 45.9052 127.304 43.9048 127.96C41.1873 128.85 40.069 134.467 42.1298 136.88C42.6179 137.45 43.4326 138.436 43.9385 139.069C44.6521 139.959 45.1846 140.038 46.2868 139.419C48.4843 138.184 48.7825 136.42 47.0412 134.94C44.6379 132.899 45.0266 131.278 47.8098 131.734C49.5528 132.021 50.7155 131.645 52.5632 130.197C55.9979 127.507 56.9386 127.742 61.3229 132.381C64.9474 136.215 65.4213 136.481 68.6625 136.511C71.9658 136.541 72.2551 136.716 74.8413 140.237C77.5073 143.866 77.5251 143.931 75.8299 143.931C74.8785 143.931 72.6988 145.101 70.9842 146.532C69.2695 147.963 67.1484 149.137 66.2698 149.14C65.3912 149.144 64.6723 149.435 64.6723 149.785C64.6723 150.133 63.8984 151.298 62.9505 152.371C61.7116 153.774 61.1081 155.527 60.7975 158.627C60.2472 164.099 59.2301 170.545 57.945 176.721C56.486 183.726 55.9854 217.426 57.3202 218.825C58.5752 220.144 58.5361 221.031 57.1676 222.221C56.5552 222.756 56.2002 223.781 56.3795 224.5C56.7931 226.162 55.4902 226.685 52.3005 226.141C50.3534 225.81 49.6842 225.996 49.3292 226.965C47.8524 231.007 58.0338 234.553 64.5747 232.272C67.2869 231.328 68.4193 231.235 69.4115 231.877C71.7244 233.373 78.2262 229.161 81.3662 224.131C82.1702 222.845 83.2246 222.177 84.4564 222.175C86.3965 222.171 91.6523 217.787 91.6523 216.172C91.6523 215.695 92.9303 213.704 94.4923 211.746C96.0543 209.788 97.3323 207.623 97.3323 206.935C97.3323 203.161 102.618 198.132 108.33 196.476C117.205 193.901 126.442 190.604 126.442 190.008C126.442 189.667 127.321 189.384 128.395 189.378C133.658 189.348 143.482 185.045 143.482 182.77C143.482 182.099 144.121 181.132 144.902 180.62C145.683 180.108 146.322 178.982 146.322 178.118C146.322 176.866 146.64 176.633 147.883 176.976C149.979 177.55 151.292 176.259 151.292 173.622C151.292 170.854 153.841 171.894 154.576 174.96C154.991 176.7 155.279 176.84 157.601 176.438C159.012 176.192 160.996 175.989 162.012 175.983C163.813 175.975 165.663 174.729 168.847 171.376C170.244 169.906 170.411 169.021 170.297 163.715L170.168 157.718L173.687 156.935C177.898 156 178.897 153.584 176.03 151.27C175.116 150.53 174.747 149.919 175.21 149.91C175.674 149.901 176.153 148.826 176.275 147.52C176.446 145.692 176.918 145.031 178.334 144.636C182.687 143.425 185.315 137.208 182 135.967C179.22 134.927 178.975 134.186 180.747 132.181C181.684 131.121 182.822 128.636 183.272 126.661C183.723 124.684 184.352 123.237 184.669 123.442C185.603 124.047 187.502 122.993 187.502 121.868C187.502 121.199 188.322 120.821 189.81 120.806C191.079 120.793 192.739 120.29 193.496 119.688C194.748 118.695 195.055 118.771 196.766 120.493C197.806 121.538 198.942 122.322 199.292 122.236C199.642 122.151 200.827 122.469 201.926 122.944C203.025 123.421 204.663 123.811 205.566 123.811C206.47 123.811 207.606 124.314 208.092 124.929C209.319 126.479 213.492 126.341 215.057 124.698C217.677 121.948 219.841 120.83 222.544 120.83C225.273 120.83 229.554 118.687 230.631 116.783C231.311 115.578 240.163 111.146 241.918 111.131C243.647 111.116 245.935 109.68 244.258 109.663C242.873 109.648 241.377 95.4852 242.257 90.7196C244.121 80.6257 242.536 76.1135 236.32 73.822C234.158 73.0246 233.583 72.3856 233.225 70.3865C232.953 68.8663 232.49 68.1267 232.005 68.4397C231.576 68.7191 231.934 67.6833 232.802 66.1407C233.668 64.5963 234.163 62.968 233.899 62.519C233.595 62.0029 233.839 61.8744 234.566 62.1669C236.343 62.8823 242.199 54.5546 242.16 51.3688C242.155 50.8397 239.852 48.2277 237.044 45.5636C234.236 42.8995 230.431 39.2721 228.586 37.5022L225.235 34.2829L224.948 36.3845C224.788 37.5395 224.685 36.4235 224.717 33.9066C224.751 31.3896 224.985 29.4596 225.241 29.6217C227.245 30.8811 227.946 17.8529 226.029 14.9894C225.349 13.9759 224.735 11.6378 224.664 9.79344C224.344 1.51788 221.733 -1.13881 215.902 0.87885ZM8.72074 110.62C6.90492 112.586 5.98902 113.029 4.14302 112.832C-0.487951 112.338 -0.722255 118.212 3.85547 120.04C7.04159 121.311 10.0165 131.131 10.139 140.772C10.2437 148.894 10.2934 149.148 11.8234 149.148C13.7103 149.148 14.2623 147.877 14.2623 143.542C14.2623 141.755 14.6191 140.062 15.0539 139.781C15.5279 139.473 15.6965 138.104 15.4728 136.366C15.1959 134.193 15.5332 132.612 16.813 130.087C22.1841 119.485 15.464 103.317 8.72074 110.62ZM13.5523 140.658C13.5523 142.452 11.9193 143.141 11.0726 141.705C10.8241 141.282 11.1081 141.157 11.74 141.411C13.0819 141.951 13.2292 140.168 11.9548 138.819C11.243 138.067 11.314 137.979 12.3098 138.378C13.0145 138.659 13.5523 139.645 13.5523 140.658ZM59.7271 140.902C58.655 143.004 58.8112 143.777 60.4993 144.725C62.5192 145.86 65.0646 143.421 64.3439 141.038C63.7298 139.007 60.7389 138.918 59.7271 140.902ZM47.0696 150.504C44.4515 152.889 44.9804 155.111 48.1648 155.098C51.7343 155.083 52.7638 154.268 52.4816 151.676C52.1869 148.973 49.4108 148.373 47.0696 150.504ZM30.1769 157.613C28.993 160.853 32.9122 165.531 35.8268 164.358C37.2397 163.789 37.3479 161.366 35.9972 160.55C35.454 160.222 34.8931 159.283 34.7476 158.463C34.421 156.606 30.7929 155.931 30.1769 157.613ZM62.5423 218.452C62.5423 218.862 61.8234 219.192 60.9448 219.186C59.6526 219.177 59.5514 219.037 60.4123 218.452C61.7897 217.519 62.5423 217.519 62.5423 218.452ZM168.332 224.403C167.747 224.807 166.389 225.143 165.315 225.148C164.241 225.154 163.362 225.519 163.362 225.959C163.362 226.396 162.883 227.259 162.299 227.874C157.821 232.574 162.778 237.515 167.809 233.364C169.326 232.11 169.669 232.053 170.011 232.992C170.535 234.422 172.875 234.422 174.005 232.993C175.18 231.507 174.401 229.631 172.608 229.631C171.337 229.631 171.268 229.448 172.049 228.138C173.622 225.495 170.828 222.687 168.332 224.403Z" fill="#12BFFE"/>
</svg>
