<svg width="180" height="140" viewBox="0 0 180 140" fill="none" xmlns="http://www.w3.org/2000/svg">
<g clip-path="url(#clip0_138_5612)">
<path d="M63 70C72.5478 70 81.7045 66.3125 88.4558 59.7487C95.2072 53.185 99 44.2826 99 35C99 25.7174 95.2072 16.815 88.4558 10.2513C81.7045 3.68749 72.5478 0 63 0C53.4522 0 44.2955 3.68749 37.5442 10.2513C30.7928 16.815 27 25.7174 27 35C27 44.2826 30.7928 53.185 37.5442 59.7487C44.2955 66.3125 53.4522 70 63 70ZM50.1469 83.125C22.4438 83.125 0 104.945 0 131.879C0 136.363 3.74063 140 8.35313 140H117.647C118.153 140 118.631 139.945 119.138 139.863C97.6781 124.797 91.0687 101.309 90.1406 85.1211C85.6125 83.8086 80.8312 83.125 75.8812 83.125H50.175H50.1469ZM136.997 61.7148L103.247 74.8398C100.688 75.8516 99 78.2578 99 80.9375C99 98.2461 106.284 127.094 136.912 139.508C138.572 140.191 140.456 140.191 142.116 139.508C172.716 127.094 180 98.2461 180 80.9375C180 78.2578 178.312 75.8516 175.753 74.8398L142.003 61.7148C140.4 61.0859 138.6 61.0859 136.997 61.7148ZM166.331 85.3125C165.234 99.1758 158.681 117.223 139.5 126.246V74.8945L166.331 85.3125Z" fill="#04D8EB"/>
</g>
<defs>
<clipPath id="clip0_138_5612">
<rect width="180" height="140" fill="white"/>
</clipPath>
</defs>
</svg>
